<svg xmlns="http://www.w3.org/2000/svg" viewBox="0 0 1440 987">
  <g fill="none" fill-rule="evenodd" stroke="#FFF" opacity="0.12">
    <path d="M382.43-190.935c-22.87-.075-44.398 10.775-57.932 29.195L84.65 164.688c-19.506 26.548-18.348 62.973 2.805 88.23l578.94 691.268c2.614 3.122 5.49 6.015 8.598 8.647 30.15 25.55 75.32 21.838 100.888-8.29l583.453-687.462c21.318-25.118 22.714-61.535 3.382-88.21L1125.01-159.12c-13.414-18.51-34.87-29.5-57.74-29.574l-684.84-2.24z"/>
    <path d="M361.555-162.447c-22.395 1.027-42.952 12.684-55.318 31.37L87.072 200.092c-17.822 26.928-14.936 62.534 6.99 86.245L694.234 935.36c2.71 2.93 5.665 5.625 8.834 8.053 30.748 23.563 74.795 17.757 98.38-12.968l538.27-701.217c19.664-25.617 19.28-61.338-.93-86.524l-248.55-309.726c-14.023-17.475-35.56-27.203-57.956-26.176l-670.73 30.75z" opacity=".992"/>
    <path d="M342.49-133.562c-21.877 2.082-41.443 14.484-52.652 33.373L91.158 234.637c-16.154 27.223-11.616 61.945 10.99 84.105l618.925 606.653c2.794 2.74 5.817 5.234 9.036 7.46 31.24 21.59 74.085 13.787 95.7-17.43l493.353-712.528c18.02-26.027 15.926-60.98-5.074-84.667L1055.805-173.1c-14.57-16.435-36.125-24.923-58.003-22.84L342.49-133.562z" opacity=".984"/>
    <path d="M325.236-104.375c-21.32 3.09-39.883 16.175-49.95 35.21L96.83 268.266c-14.507 27.43-8.394 61.21 14.808 81.817l635.284 564.28c2.867 2.546 5.947 4.844 9.206 6.868 31.627 19.637 73.204 9.935 92.866-21.668l448.86-721.473c16.393-26.348 12.66-60.472-9.04-82.653l-266.947-272.852c-15.057-15.39-36.57-22.664-57.89-19.573l-638.74 92.613z" opacity=".977"/>
    <path d="M309.728-74.945c-20.726 4.052-38.27 17.755-47.21 36.873l-158.516 339c-12.885 27.553-5.275 60.33 18.432 79.39l649.218 521.978c2.93 2.356 6.056 4.458 9.344 6.282 31.91 17.704 72.15 6.206 89.88-25.68l404.82-728.057c14.783-26.586 9.488-59.814-12.826-80.487L988.35-179.98c-15.483-14.345-36.895-20.43-57.62-16.38L309.727-74.944z" opacity=".969"/>
    <path d="M295.95-45.41c-20.096 4.966-36.613 19.226-44.446 38.375l-138.91 339.587c-11.29 27.598-2.263 59.323 21.865 76.845l660.835 479.92c2.982 2.165 6.144 4.072 9.45 5.7 32.093 15.8 70.938 2.607 86.763-29.467l361.375-732.417c13.194-26.74 6.41-59.02-16.43-78.188l-281.05-235.852c-15.848-13.3-37.106-18.23-57.203-13.264L295.95-45.41z" opacity=".961"/>
    <path d="M283.882-15.808C264.444-9.98 248.96 4.775 242.212 23.9L122.52 363.113c-9.725 27.563.64 58.19 25.105 74.185L817.82 875.454c3.022 1.977 6.21 3.692 9.526 5.127 32.18 13.927 69.577-.858 83.53-33.022l318.63-734.582c11.632-26.816 3.44-58.094-19.845-75.76L923.105-180.217c-16.156-12.26-37.206-16.062-56.644-10.235L283.882-15.81z" opacity=".953"/>
    <path d="M273.486 13.77c-18.75 6.64-33.203 21.833-38.89 40.882L133.706 392.57c-8.195 27.453 3.425 56.94 28.148 71.422l677.348 396.795c3.056 1.79 6.26 3.316 9.574 4.56 32.177 12.087 68.08-4.188 80.194-36.348L1205.657 94.36c10.1-26.814.573-57.042-23.074-73.22L891.52-177.977c-16.408-11.224-37.2-13.935-55.95-7.295L273.485 13.77z" opacity=".945"/>
    <path d="M264.75 43.235c-18.04 7.403-31.458 22.97-36.11 41.894l-82.534 335.736c-6.704 27.272 6.09 55.58 30.992 68.57L859.434 845.39c3.078 1.606 6.287 2.946 9.593 4.006 32.084 10.284 66.452-7.376 76.764-39.445l235.59-732.655c8.598-26.738-2.182-55.874-26.11-70.574L860.684-174.25c-16.604-10.2-37.09-11.855-55.128-4.452L264.75 43.236z" opacity=".938"/>
    <path d="M257.553 72.488c-17.3 8.114-29.687 24-33.33 42.75l-64.64 332.703c-5.25 27.022 8.636 54.122 33.638 65.643l685.193 315.743c3.09 1.424 6.296 2.58 9.584 3.46 31.9 8.527 64.695-10.414 73.245-42.304L1156.625 61.78c7.13-26.59-4.826-54.596-28.958-67.838l-297.13-163.045c-16.746-9.188-36.88-9.824-54.18-1.71l-518.804 243.3z" opacity=".93"/>
    <path d="M251.976 101.494c-16.548 8.776-27.91 24.924-30.574 43.455l-47.29 328.884c-3.84 26.706 11.058 52.57 36.09 62.646l686.11 276.207c3.094 1.245 6.288 2.224 9.55 2.926 31.64 6.814 62.835-13.306 69.672-44.94l156.26-722.924c5.7-26.375-7.35-53.218-31.613-65.022L801.396-162.628c-16.835-8.19-36.577-7.844-53.125.932l-496.294 263.19z" opacity=".922"/>
    <path d="M247.896 130.168c-15.78 9.388-26.126 25.745-27.844 44.015L189.56 498.5c-2.477 26.33 13.354 50.935 38.344 59.596l685.133 237.44c3.088 1.072 6.263 1.877 9.49 2.407 31.306 5.148 60.88-16.05 66.052-47.35l118.248-715.402c4.313-26.094-9.755-51.746-34.077-62.134L773.187-154.898c-16.876-7.208-36.188-5.92-51.967 3.47L247.895 130.167z" opacity=".914"/>
    <path d="M245.284 158.432c-14.997 9.95-24.34 26.46-25.143 44.43L205.885 521.9c-1.158 25.898 15.524 49.224 40.407 56.5l682.303 199.545c3.075.9 6.222 1.535 9.406 1.9 30.897 3.533 58.83-18.643 62.39-49.534l81.374-706.208c2.967-25.754-12.04-50.192-36.35-59.193l-299.49-110.882c-16.868-6.245-35.713-4.054-50.71 5.896l-449.93 298.508z" opacity=".906"/>
    <path d="M244.085 186.22c-14.203 10.463-22.557 27.076-22.478 44.708L223 544.018c.114 25.41 17.568 47.444 42.28 53.373l677.705 162.59c3.055.73 6.166 1.202 9.3 1.405 30.42 1.975 56.7-21.08 58.698-51.493l45.694-695.437c1.666-25.357-14.202-48.56-38.436-56.205L719.65-135.924c-16.815-5.304-35.16-2.253-49.362 8.21l-426.2 313.934z" opacity=".898"/>
    <path d="M244.22 213.49c-13.402 10.926-20.78 27.594-19.856 44.853L240.79 564.87c1.334 24.873 19.483 45.608 43.962 50.224l671.47 126.612c3.024.57 6.093.882 9.172.93 29.878.47 54.5-23.366 54.993-53.24l11.29-683.207c.41-24.908-16.24-46.863-40.336-53.18L694.413-124.85c-16.718-4.384-34.53-.514-47.935 10.412L244.22 213.49z" opacity=".891"/>
    <path d="M245.687 240.207c-12.597 11.343-19.02 28.017-17.285 44.87l30.823 299.364c2.5 24.29 21.266 43.715 45.454 47.056l663.604 91.66c2.99.412 6.01.57 9.025.468 29.274-.977 52.233-25.498 51.28-54.77L1006.8-.695c-.795-24.405-18.154-45.098-42.047-50.124L670.25-112.766c-16.58-3.487-33.833 1.158-46.43 12.5L245.687 240.208z" opacity=".883"/>
    <path d="M248.394 266.284c-11.788 11.71-17.275 28.344-14.766 44.76l44.583 291.67c3.617 23.658 22.924 41.775 46.766 43.882l654.24 57.83c2.948.26 5.912.268 8.86.024 28.615-2.365 49.915-27.477 47.574-56.09L982.105-6.246c-1.952-23.855-19.942-43.28-43.577-47.05L647.158-99.79c-16.4-2.617-33.07 2.76-44.856 14.472l-353.908 351.6z" opacity=".875"/>
    <path d="M252.36 291.708c-10.977 12.032-15.55 28.58-12.304 44.533l57.676 283.464c4.678 22.99 24.45 39.796 47.894 40.712l643.428 25.13c2.898.113 5.8-.022 8.675-.402 27.9-3.693 47.546-29.304 43.88-57.204l-83.9-638.43c-3.056-23.26-21.603-41.413-44.923-43.967L625.235-85.954c-16.18-1.773-32.242 4.295-43.22 16.328L252.36 291.708z" opacity=".867"/>
    <path d="M257.414 316.378c-10.168 12.308-13.848 28.73-9.903 44.19l70.126 274.798c5.686 22.282 25.853 37.787 48.85 37.556l631.268-6.32c2.842-.03 5.677-.3 8.473-.812 27.138-4.956 45.14-30.974 40.207-58.112L933.542-13.447c-4.112-22.626-23.143-39.506-46.098-40.886L604.35-71.353c-15.926-.958-31.358 5.755-41.527 18.063l-305.41 369.668z" opacity=".859"/>
    <path d="M263.558 340.306c-9.363 12.54-12.176 28.793-7.57 43.74l81.888 265.71c6.64 21.54 27.13 35.75 49.63 34.42l617.842-36.554c2.78-.165 5.543-.566 8.257-1.2 26.33-6.158 42.702-32.496 36.568-58.827L909.745-15.185c-5.115-21.954-24.56-37.564-47.098-37.812l-278.027-3.05c-15.64-.17-30.424 7.143-39.787 19.68L263.558 340.307z" opacity=".852"/>
    <path d="M270.732 363.456c-8.563 12.726-10.536 28.774-5.308 43.185l92.96 256.25c7.535 20.768 28.277 33.694 50.243 31.308l603.233-65.53c2.715-.296 5.4-.823 8.026-1.574 25.48-7.296 40.243-33.868 32.972-59.352L886.368-15.753C880.307-37 860.52-51.347 838.444-50.503L566.053-40.11c-15.32.586-29.443 8.457-38.007 21.183L270.732 363.456z" opacity=".844"/>
    <path d="M278.888 385.77c-7.77 12.87-8.93 28.676-3.12 42.532L379.116 674.74c8.374 19.97 29.302 31.625 50.69 28.233l587.51-93.188c2.645-.42 5.248-1.063 7.782-1.926 24.594-8.368 37.768-35.092 29.424-59.69L863.44-15.158c-6.958-20.51-27.017-33.602-48.59-31.716L548.636-23.59c-14.968 1.31-28.416 9.694-36.188 22.565L278.888 385.77z" opacity=".836"/>
    <path d="M287.908 407.217c-6.99 12.974-7.364 28.504-1.01 41.79l113.064 236.35c9.16 19.147 30.21 29.552 50.987 25.203l570.834-119.505c2.568-.538 5.086-1.294 7.525-2.26 23.676-9.374 35.287-36.17 25.935-59.852L841.017-13.497c-7.798-19.742-28.067-31.597-49.097-28.712L532.35-6.606c-14.59 2-27.354 10.857-34.343 23.83l-210.1 389.994z" opacity=".828"/>
    <path d="M297.816 427.8c-6.22 13.04-5.84 28.262 1.023 40.965l122.084 226.01c9.89 18.306 30.998 27.48 51.13 22.223L1025.302 572.5c2.49-.65 4.918-1.51 7.26-2.573 22.73-10.317 32.81-37.112 22.514-59.847L819.2-10.807c-8.584-18.956-28.998-29.587-49.448-25.75L517.278 10.796c-14.19 2.66-26.26 11.946-32.478 24.984L297.816 427.8z" opacity=".82"/>
    <path d="M308.468 447.472c-5.462 13.065-4.357 27.95 2.97 40.055l130.427 215.445c10.562 17.447 31.67 25.414 51.127 19.298l534.813-168.11c2.405-.755 4.74-1.715 6.983-2.868 21.756-11.194 30.336-37.91 19.163-59.674L797.91-7.11c-9.314-18.144-29.812-27.57-49.65-22.83L503.307 28.574c-13.764 3.288-25.134 12.958-30.595 26.022L308.47 447.472z" opacity=".813"/>
    <path d="M319.885 466.24c-4.72 13.054-2.922 27.574 4.835 39.074l138.08 204.71c11.18 16.574 32.23 23.358 50.984 16.434l515.64-190.37c2.317-.856 4.558-1.91 6.697-3.146 20.764-12.006 27.88-38.577 15.894-59.348L777.3-2.49c-9.992-17.317-30.514-25.56-49.707-19.965L490.53 46.64c-13.316 3.88-23.983 13.896-28.702 26.95L319.885 466.24z" opacity=".805"/>
    <path d="M331.926 484.038c-3.992 13.005-1.534 27.134 6.614 38.02l145.07 193.807c11.744 15.688 32.677 21.318 50.707 13.638l495.78-211.195c2.228-.95 4.37-2.087 6.406-3.402 19.75-12.75 25.437-39.105 12.704-58.862L757.273 3.08c-10.616-16.472-31.104-23.555-49.625-17.156l-228.82 79.053c-12.85 4.44-22.812 14.757-26.803 27.762l-120.1 391.298z" opacity=".797"/>
    <path d="M344.606 500.915c-3.282 12.925-.197 26.64 8.303 36.904l151.365 182.804c12.25 14.793 33.012 19.298 50.293 10.91l475.294-230.676c2.136-1.037 4.18-2.254 6.11-3.638 18.72-13.435 23.02-39.51 9.605-58.24L737.95 9.466C726.765-6.15 706.37-12.098 688.545-4.942l-220.25 88.426c-12.367 4.965-21.622 15.545-24.905 28.47l-98.784 388.96z" opacity=".789"/>
    <path d="M357.742 516.77c-2.59 12.81 1.09 26.084 9.903 35.722L524.66 724.185c12.703 13.89 33.245 17.302 49.758 8.263l454.29-248.677c2.042-1.116 3.983-2.405 5.805-3.853 17.68-14.05 20.635-39.777 6.6-57.464L719.22 16.74c-11.7-14.747-31.954-19.59-49.058-11.73l-211.406 97.156c-11.868 5.455-20.42 16.254-23.01 29.063l-78.002 385.54z" opacity=".781"/>
    <path d="M371.44 531.71c-1.92 12.663 2.32 25.482 11.413 34.494l162.01 160.573c13.104 12.988 33.38 15.34 49.11 5.696l432.887-265.367c1.944-1.192 3.783-2.548 5.497-4.053 16.632-14.604 18.288-39.933 3.7-56.574L701.332 24.68c-12.164-13.876-32.224-17.642-48.59-9.124l-202.34 105.307c-11.356 5.91-19.207 16.895-21.128 29.56L371.44 531.708z" opacity=".773"/>
    <path d="M385.558 545.676c-1.272 12.49 3.497 24.835 12.832 33.22l166.376 149.445c13.454 12.086 33.416 13.413 48.353 3.216l411.142-280.68c1.846-1.26 3.58-2.675 5.187-4.23 15.58-15.097 15.982-39.974.9-55.564L684.197 33.312c-12.576-12.997-32.396-15.72-48.01-6.593L443.112 139.57c-10.834 6.333-17.992 17.464-19.264 29.954l-38.29 376.15z" opacity=".766"/>
    <path d="M400.083 558.676c-.644 12.288 4.618 24.145 14.16 31.905L584.34 728.92c13.753 11.184 33.358 11.523 47.49.822l389.078-294.63c1.747-1.323 3.377-2.793 4.874-4.393 14.526-15.53 13.725-39.903-1.79-54.44L667.84 42.593c-12.936-12.12-32.47-13.832-47.315-4.147L436.9 158.245c-10.3 6.72-16.772 17.96-17.416 30.25l-19.4 370.18z" opacity=".758"/>
    <path d="M414.913 570.708c-.04 12.06 5.682 23.416 15.396 30.554l173.22 127.283c14 10.287 33.21 9.677 46.53-1.48l366.824-307.233c1.646-1.38 3.172-2.896 4.56-4.535 13.475-15.9 11.517-39.724-4.37-53.21L652.267 52.46c-13.247-11.244-32.452-11.98-46.52-1.784l-174.05 126.146c-9.76 7.075-15.556 18.39-15.596 30.453l-1.19 363.433z" opacity=".75"/>
    <path d="M430.04 581.78c.54 11.81 6.687 22.65 16.54 29.17l175.732 116.313c14.2 9.4 32.975 7.877 45.477-3.685l344.394-318.51c1.546-1.43 2.966-2.99 4.246-4.66 12.425-16.215 9.364-39.444-6.838-51.882L637.497 62.864c-13.508-10.37-32.343-10.167-45.623.49L427.522 195.26c-9.215 7.395-14.344 18.752-13.803 30.563l16.32 355.956z" opacity=".742"/>
    <path d="M445.357 591.873c1.098 11.536 7.637 21.852 17.596 27.762L640.63 725.07c14.353 8.516 32.66 6.123 44.343-5.797l321.922-328.442c1.444-1.472 2.76-3.066 3.932-4.763 11.384-16.47 7.27-39.063-9.19-50.46L623.532 73.802c-13.72-9.5-32.15-8.397-44.64 2.675L424.298 213.538c-8.665 7.682-13.14 19.047-12.042 30.582l33.102 347.753z" opacity=".734"/>
    <path d="M460.864 601.025c1.63 11.24 8.526 21.024 18.56 26.33L658.47 722.05c14.46 7.647 32.264 4.424 43.128-7.806L1001.01 377.15c1.343-1.512 2.554-3.135 3.62-4.853 10.352-16.672 5.238-38.59-11.42-48.954L610.385 85.17c-13.89-8.643-31.877-6.675-43.57 4.764L422.04 231.58c-8.114 7.938-11.948 19.28-10.32 30.518l49.144 338.927z" opacity=".727"/>
    <path d="M476.46 609.252c2.136 10.924 9.36 20.17 19.436 24.883l179.888 84.115c14.524 6.79 31.8 2.78 41.847-9.715L994.62 364.033c1.24-1.544 2.35-3.192 3.31-4.925 9.333-16.82 3.272-38.03-13.536-47.375L598.052 96.92c-14.013-7.79-31.527-5-42.424 6.76L420.666 249.354c-7.56 8.16-10.768 19.447-8.632 30.37l64.426 329.53z" opacity=".719"/>
    <path d="M492.14 616.538c2.617 10.59 10.132 19.296 20.223 23.424l180.193 73.705c14.543 5.95 31.262 1.192 40.497-11.523L987.71 351.497c1.142-1.57 2.147-3.237 3.005-4.98 8.327-16.912 1.375-37.383-15.528-45.723L586.55 109.05c-14.09-6.954-31.103-3.38-41.204 8.657l-125.15 149.13c-7.008 8.35-9.606 19.553-6.99 30.144L492.14 616.54z" opacity=".711"/>
    <path d="M507.862 622.925c3.07 10.242 10.845 18.4 20.922 21.957l179.983 63.508c14.523 5.124 30.66-.336 39.087-13.227L980.332 339.56c1.042-1.593 1.945-3.272 2.702-5.02 7.337-16.956-.454-36.66-17.4-44.012L575.87 121.458c-14.128-6.128-30.608-1.81-39.917 10.457L420.588 283.962c-6.46 8.513-8.463 19.604-5.392 29.846l92.666 309.117z" opacity=".703"/>
    <path d="M523.533 628.444c3.498 9.88 11.502 17.493 21.538 20.49l179.31 53.533c14.465 4.32 30-1.804 37.63-14.83l210.555-359.42c.943-1.61 1.747-3.297 2.403-5.043 6.368-16.953-2.207-35.87-19.15-42.25L565.994 134.106c-14.127-5.32-30.053-.302-38.576 12.157L421.76 300.71c-5.915 8.645-7.343 19.6-3.845 29.478l105.618 298.256z" opacity=".695"/>
    <path d="M539.15 633.08c3.9 9.503 12.1 16.572 22.07 19.022l178.162 43.793c14.367 3.53 29.28-3.21 36.124-16.327l188.898-362.082c.846-1.62 1.552-3.312 2.11-5.053 5.42-16.902-3.885-35.007-20.78-40.44l-388.79-125.006c-14.086-4.53-29.435 1.15-37.18 13.756l-96.04 156.32c-5.373 8.748-6.245 19.54-2.345 29.043L539.15 633.08z" opacity=".688"/>
    <path d="M554.665 636.856c4.274 9.114 12.643 15.64 22.52 17.557l176.563 34.305c14.234 2.765 28.51-4.55 34.578-17.72L955.89 307.372c.75-1.628 1.36-3.317 1.822-5.05 4.492-16.803-5.485-34.078-22.284-38.582L548.71 160.053c-14.006-3.755-28.76 2.542-35.734 15.254l-86.528 157.685c-4.84 8.82-5.174 19.427-.9 28.54l129.117 275.324z" opacity=".68"/>
    <path d="M570.052 639.818c4.623 8.716 13.128 14.7 22.888 16.104l174.544 25.1c14.067 2.024 27.69-5.823 32.996-19.007l146.58-364.133c.657-1.63 1.173-3.312 1.543-5.03 3.588-16.666-7.01-33.097-23.67-36.698l-383.668-82.937c-13.89-3.002-28.03 3.872-34.246 16.65L429.88 348.44c-4.315 8.867-4.132 19.265.49 27.98L570.052 639.82z" opacity=".672"/>
    <path d="M585.26 641.968c4.944 8.31 13.558 13.76 23.18 14.664l172.118 16.182c13.866 1.303 26.823-7.034 31.384-20.194l126.014-363.605c.564-1.626.988-3.298 1.267-4.997 2.71-16.487-8.453-32.06-24.935-34.785l-379.67-62.754c-13.743-2.272-27.252 5.137-32.722 17.945L433.99 363.407c-3.797 8.887-3.118 19.057 1.826 27.366L585.26 641.968z" opacity=".664"/>
    <path d="M600.253 643.334c5.24 7.896 13.932 12.816 23.393 13.238l169.31 7.562c13.636.61 25.918-8.175 29.75-21.276L928.61 280.772c.475-1.62.81-3.276 1-4.952 1.863-16.27-9.814-30.976-26.078-32.85l-374.778-43.174c-13.56-1.562-26.427 6.34-31.166 19.14L438.74 377.87c-3.288 8.882-2.135 18.803 3.103 26.7l158.41 238.764z" opacity=".656"/>
    <path d="M615.01 643.965c5.508 7.478 14.254 11.876 23.536 11.835l166.154-.733c13.376-.06 24.976-9.248 28.097-22.257l86.27-359.657c.385-1.608.633-3.246.74-4.896 1.04-16.015-11.1-29.85-27.11-30.903L523.635 213.09c-13.35-.878-25.564 7.476-29.588 20.233l-49.97 158.463c-2.793 8.852-1.186 18.51 4.322 25.987l166.61 226.192z" opacity=".648"/>
    <path d="M629.485 643.87c5.752 7.055 14.525 10.94 23.61 10.453l162.66-8.707c13.092-.7 24.005-10.253 26.433-23.137l67.166-356.33c.3-1.592.464-3.207.49-4.828.246-15.726-12.3-28.686-28.024-28.947l-362.554-6.014c-13.11-.216-24.664 8.548-27.988 21.23l-41.306 157.57c-2.307 8.8-.27 18.176 5.482 25.23l174.03 213.48z" opacity=".641"/>
    <path d="M643.65 643.08c5.97 6.628 14.743 10.01 23.61 9.096l158.86-16.35c12.782-1.316 23.004-11.19 24.762-23.92L899.51 259.76c.217-1.573.3-3.162.246-4.75-.515-15.405-13.42-27.488-28.822-26.987L515.63 239.574c-12.84.417-23.73 9.552-26.374 22.125l-32.867 156.28c-1.836 8.725.61 17.804 6.578 24.434l180.68 200.667z" opacity=".633"/>
    <path d="M657.475 641.624c6.16 6.202 14.912 9.09 23.55 7.77l154.77-23.657c12.446-1.903 21.978-12.06 23.086-24.604l30.686-347.164c.137-1.55.14-3.11.013-4.662-1.246-15.055-14.458-26.26-29.512-25.03l-347.357 28.41c-12.55 1.028-22.77 10.493-24.753 22.927l-24.67 154.612c-1.376 8.628 1.454 17.398 7.615 23.6l186.573 187.797z" opacity=".625"/>
    <path d="M671.002 639.56c6.33 5.774 15.036 8.18 23.427 6.472l150.427-30.605c12.094-2.46 20.936-12.862 21.417-25.195l13.33-341.453c.06-1.526-.01-3.052-.21-4.565-1.944-14.678-15.417-25.013-30.095-23.085l-338.802 44.518c-12.237 1.608-21.786 11.365-23.13 23.633L470.656 441.88c-.932 8.513 2.26 16.962 8.59 22.737L671.002 639.56z" opacity=".617"/>
    <path d="M684.076 636.875c6.474 5.35 15.11 7.284 23.243 5.21l145.83-37.218c11.72-2.99 19.876-13.6 19.756-25.694l-3.35-335.007c-.014-1.495-.156-2.986-.425-4.457-2.606-14.275-16.29-23.744-30.565-21.15l-329.623 59.917c-11.9 2.163-20.78 12.174-21.505 24.248l-9.035 150.234c-.504 8.376 3.026 16.494 9.5 21.842l196.174 162.073z" opacity=".609"/>
    <path d="M696.772 633.59c6.593 4.924 15.14 6.403 23 3.98l141-43.453c11.328-3.49 18.8-14.266 18.1-26.1L859.475 240.16c-.087-1.462-.298-2.915-.632-4.342-3.238-13.846-17.088-22.455-30.934-19.23L508.04 291.11c-11.544 2.69-19.753 12.913-19.883 24.765l-1.62 147.536c-.09 8.223 3.757 15.998 10.35 20.92l199.882 149.26z" opacity=".602"/>
    <path d="M709.038 629.773c6.69 4.502 15.128 5.538 22.704 2.79l135.974-49.334c10.92-3.963 17.715-14.868 16.46-26.417l-34.76-320.1c-.155-1.426-.43-2.838-.827-4.218-3.835-13.397-17.806-21.158-31.203-17.334l-309.62 88.358c-11.17 3.188-18.714 13.59-18.272 25.198l5.51 144.54c.308 8.055 4.446 15.48 11.137 19.983l202.896 136.533z" opacity=".594"/>
    <path d="M720.86 625.457c6.765 4.085 15.073 4.694 22.357 1.64L873.99 572.24c10.498-4.403 16.626-15.405 14.844-26.648l-49.425-311.78c-.222-1.39-.56-2.757-1.013-4.09-4.398-12.928-18.445-19.852-31.375-15.465L508.09 315.685c-10.782 3.658-17.665 14.203-16.674 25.544l12.344 141.273c.688 7.87 5.095 14.938 11.86 19.023l205.24 123.93z" opacity=".586"/>
    <path d="M732.246 620.636c6.818 3.673 14.98 3.87 21.96.53l125.41-59.995c10.064-4.813 15.532-15.875 13.246-26.794L829.455 231.48c-.282-1.35-.68-2.672-1.187-3.954-4.926-12.442-19.01-18.545-31.453-13.63L508.99 327.574c-10.377 4.098-16.606 14.75-15.09 25.8l18.888 137.734c1.052 7.668 5.706 14.375 12.524 18.048l206.934 111.48z" opacity=".578"/>
    <path d="M743.158 615.384c6.85 3.268 14.848 3.068 21.52-.537L884.6 550.07c9.617-5.195 14.437-16.285 11.675-26.863l-76.668-293.544c-.34-1.308-.794-2.583-1.352-3.814-5.42-11.943-19.498-17.24-31.443-11.83L510.435 339.172c-9.96 4.51-15.544 15.235-13.53 25.98l25.126 133.958c1.4 7.455 6.278 13.796 13.128 17.064l208 99.21z" opacity=".57"/>
    <path d="M753.587 609.735c6.862 2.87 14.682 2.29 21.04-1.56l114.317-69.204c9.165-5.547 13.35-16.635 10.137-26.856l-89.2-283.773c-.397-1.263-.9-2.49-1.507-3.668-5.88-11.428-19.915-15.935-31.347-10.066L512.398 350.46c-9.53 4.893-14.483 15.66-11.993 26.08l31.05 129.975c1.726 7.23 6.806 13.203 13.67 16.072l208.462 87.148z" opacity=".563"/>
    <path d="M763.52 603.67c6.853 2.477 14.478 1.534 20.517-2.54l108.6-73.26c8.703-5.87 12.266-16.923 8.63-26.772l-100.985-273.56c-.45-1.218-1.002-2.395-1.65-3.518-6.306-10.903-20.258-14.64-31.165-8.345L514.9 361.425c-9.093 5.248-13.42 16.024-10.484 26.103l36.652 125.768c2.038 6.994 7.296 12.595 14.15 15.073l208.3 75.3z" opacity=".555"/>
    <path d="M773.023 597.285c6.83 2.096 14.248.806 19.964-3.472l102.833-76.96c8.237-6.165 11.193-17.155 7.16-26.62L790.904 227.196c-.498-1.17-1.096-2.295-1.786-3.363-6.697-10.37-20.535-13.356-30.91-6.672l-240.34 154.87c-8.65 5.573-12.367 16.33-9.007 26.054l41.953 121.398c2.332 6.748 7.75 11.978 14.58 14.074l207.63 63.727z" opacity=".547"/>
    <path d="M781.82 590.53c6.783 1.72 13.98.102 19.366-4.36l96.96-80.306c7.762-6.43 10.127-17.328 5.727-26.398L781.546 227.33c-.544-1.12-1.182-2.193-1.91-3.205-7.048-9.826-20.73-12.082-30.56-5.04l-227.81 163.21c-8.195 5.872-11.317 16.578-7.563 25.933l46.89 116.84c2.606 6.49 8.157 11.348 14.94 13.07l206.288 52.39z" opacity=".539"/>
    <path d="M790.254 583.528c6.722 1.36 13.688-.57 18.746-5.197l91.09-83.303c7.288-6.667 9.08-17.448 4.335-26.114l-131.928-241.02c-.586-1.072-1.263-2.092-2.022-3.048-7.373-9.278-20.875-10.83-30.157-3.464L525.075 392.165c-7.74 6.14-10.28 16.77-6.155 25.746l51.542 112.16c2.862 6.23 8.53 10.716 15.252 12.076l204.54 41.382z" opacity=".531"/>
    <path d="M798.163 576.243c6.644 1.008 13.37-1.218 18.097-5.988l85.183-85.947c6.813-6.875 8.047-17.512 2.988-25.765L763.66 228.896c-.625-1.02-1.337-1.984-2.126-2.884-7.662-8.725-20.95-9.594-29.68-1.94L529.31 401.644c-7.28 6.382-9.255 16.906-4.786 25.492l55.864 107.34c3.1 5.96 8.863 10.08 15.507 11.086l202.268 30.68z" opacity=".523"/>
    <path d="M805.563 568.757c6.552.667 13.027-1.835 17.425-6.732l79.28-88.264c6.34-7.057 7.036-17.528 1.688-25.362l-148.9-218.117c-.66-.968-1.404-1.878-2.22-2.72-7.92-8.173-20.967-8.384-29.145-.472L533.895 410.726c-6.818 6.597-8.246 16.993-3.46 25.183l59.87 102.43c3.32 5.68 9.16 9.436 15.71 10.103l199.55 20.314z" opacity=".516"/>
    <path d="M812.436 561.05c6.444.338 12.66-2.42 16.73-7.425l73.38-90.24c5.863-7.213 6.04-17.494.43-24.905l-156.28-206.412c-.694-.916-1.465-1.77-2.304-2.556-8.142-7.618-20.922-7.198-28.544.94l-177 188.945c-6.356 6.783-7.254 17.027-2.176 24.812l63.545 97.416c3.524 5.402 9.418 8.796 15.862 9.134l196.356 10.29z" opacity=".508"/>
    <path d="M818.806 553.157c6.323.02 12.275-2.98 16.017-8.07l67.514-91.883c5.393-7.34 5.072-17.41-.776-24.39L738.598 234.236c-.723-.863-1.518-1.662-2.377-2.39-8.336-7.063-20.824-6.037-27.893 2.29L544.093 427.644c-5.893 6.944-6.28 17.01-.935 24.386l66.91 92.32c3.71 5.117 9.642 8.155 15.965 8.176l192.773.63z" opacity=".5"/>
    <path d="M824.65 545.152c6.19-.284 11.87-3.506 15.287-8.67l61.682-93.223c4.924-7.443 4.126-17.284-1.933-23.837l-168.917-182.7c-.75-.81-1.566-1.555-2.44-2.226-8.498-6.513-20.67-4.908-27.187 3.584L549.65 435.47c-5.432 7.08-5.326 16.953.26 23.914l69.952 87.188c3.875 4.83 9.827 7.518 16.015 7.235l188.774-8.655z" opacity=".492"/>
    <path d="M830 537.017c6.044-.575 11.448-4.002 14.544-9.22l55.917-94.248c4.463-7.522 3.21-17.114-3.035-23.236L723.228 239.547c-.772-.757-1.607-1.446-2.496-2.06-8.63-5.966-20.465-3.81-26.435 4.814l-138.85 200.567c-4.978 7.19-4.4 16.846 1.4 23.39l72.696 82.006c4.024 4.54 9.978 6.885 16.022 6.31L830 537.017z" opacity=".484"/>
    <path d="M834.833 528.78c5.886-.852 11.01-4.465 13.79-9.72l50.215-94.966c4.005-7.574 2.317-16.9-4.088-22.59L715.98 242.69c-.792-.704-1.643-1.34-2.542-1.897-8.73-5.422-20.21-2.744-25.638 5.982L561.498 449.823c-4.526 7.275-3.495 16.697 2.496 22.82l75.12 76.795c4.156 4.25 10.095 6.258 15.982 5.404l179.737-26.06z" opacity=".477"/>
    <path d="M839.19 520.516c5.718-1.118 10.56-4.9 13.027-10.177l44.605-95.417c3.555-7.605 1.455-16.652-5.088-21.914L709.03 246.08c-.81-.65-1.67-1.23-2.58-1.734-8.805-4.887-19.91-1.714-24.803 7.088l-113.914 204.92c-4.08 7.338-2.617 16.51 3.54 22.216l77.257 71.59c4.273 3.96 10.183 5.64 15.902 4.522l174.757-34.168z" opacity=".469"/>
    <path d="M843.044 512.205c5.544-1.37 10.1-5.304 12.26-10.587l39.084-95.577c3.113-7.614.623-16.367-6.033-21.202L702.39 249.75c-.823-.597-1.695-1.124-2.608-1.573-8.853-4.36-19.568-.72-23.933 8.13L574.17 462.444c-3.638 7.378-1.767 16.285 4.534 21.573l79.09 66.387c4.373 3.67 10.237 5.03 15.78 3.66l169.47-41.86z" opacity=".461"/>
    <path d="M846.43 503.867c5.36-1.607 9.63-5.676 11.492-10.95l33.682-95.47c2.682-7.6-.177-16.046-6.923-20.458L696.07 253.67c-.835-.545-1.714-1.018-2.63-1.414-8.873-3.84-19.186.237-23.033 9.107l-89.668 206.74c-3.208 7.396-.95 16.022 5.472 20.894l80.646 61.196c4.455 3.38 10.26 4.43 15.62 2.823l163.953-49.15z" opacity=".453"/>
    <path d="M849.334 495.533c5.17-1.83 9.153-6.018 10.72-11.268l28.394-95.095c2.26-7.567-.943-15.695-7.758-19.687l-190.62-111.66c-.842-.494-1.725-.915-2.64-1.258-8.868-3.33-18.765 1.155-22.104 10.02l-77.87 206.737c-2.783 7.39-.157 15.723 6.36 20.182l81.912 56.034c4.523 3.094 10.254 3.84 15.423 2.01l158.184-56.015z" opacity=".445"/>
    <path d="M851.783 487.273c4.97-2.04 8.667-6.33 9.948-11.544l23.22-94.495c1.848-7.515-1.678-15.316-8.54-18.896L684.384 262.14c-.848-.443-1.733-.812-2.644-1.104-8.84-2.835-18.31 2.03-21.15 10.868l-66.286 206.206c-2.37 7.367.602 15.396 7.195 19.447l82.904 50.94c4.575 2.812 10.22 3.268 15.19 1.23l152.19-62.457z" opacity=".438"/>
    <path d="M853.797 479.053c4.766-2.236 8.178-6.612 9.182-11.777l18.195-93.658c1.446-7.444-2.38-14.91-9.268-18.083L679.025 266.65c-.85-.392-1.734-.71-2.64-.953-8.79-2.35-17.823 2.87-20.18 11.654L601.21 482.485c-1.964 7.324 1.33 15.04 7.978 18.688l83.643 45.898c4.61 2.532 10.158 2.707 14.925.472l146.042-68.49z" opacity=".43"/>
    <path d="M855.365 470.904c4.558-2.417 7.687-6.864 8.42-11.967l13.313-92.592c1.058-7.355-3.045-14.478-9.94-17.253L674 271.328c-.852-.343-1.732-.612-2.63-.806-8.714-1.876-17.305 3.665-19.188 12.377l-43.99 203.526c-1.57 7.263 2.024 14.656 8.706 17.907l84.118 40.923c4.636 2.256 10.073 2.16 14.63-.256l139.72-74.096z" opacity=".422"/>
    <path d="M856.502 462.848c4.343-2.584 7.19-7.087 7.664-12.116l8.58-91.31c.68-7.248-3.677-14.022-10.556-16.406l-192.89-66.86c-.85-.295-1.723-.517-2.61-.663-8.62-1.417-16.76 4.418-18.184 13.034l-33.28 201.417c-1.188 7.184 2.685 14.246 9.38 17.106l84.34 36.028c4.645 1.985 9.96 1.63 14.305-.954l133.252-79.276z" opacity=".414"/>
    <path d="M857.22 454.905c4.126-2.737 6.697-7.28 6.917-12.225l4.006-89.822c.318-7.126-4.273-13.545-11.12-15.548l-192.087-56.197c-.846-.248-1.712-.423-2.588-.523-8.5-.973-16.187 5.128-17.165 13.628l-22.89 198.826c-.817 7.087 3.313 13.81 10.002 16.288l84.315 31.226c4.64 1.72 9.826 1.116 13.953-1.62l126.657-84.033z" opacity=".406"/>
    <path d="M857.536 447.094c3.905-2.877 6.202-7.446 6.18-12.295l-.405-88.143c-.03-6.988-4.83-13.05-11.627-14.68l-190.78-45.798c-.84-.203-1.697-.332-2.56-.388-8.364-.544-15.59 5.795-16.14 14.16l-12.836 195.78c-.457 6.974 3.907 13.356 10.572 15.46l84.057 26.523c4.624 1.46 9.668.62 13.574-2.256l119.966-88.366z" opacity=".398"/>
    <path d="M857.483 439.416c3.684-3.003 5.713-7.585 5.458-12.33l-4.628-86.292c-.367-6.838-5.356-12.537-12.084-13.806l-189.03-35.654c-.83-.157-1.674-.243-2.52-.256-8.213-.13-14.98 6.422-15.116 14.634l-3.168 192.335c-.112 6.847 4.465 12.882 11.088 14.62l83.59 21.92c4.596 1.207 9.492.143 13.176-2.86l113.235-92.31z" opacity=".391"/>
    <path d="M857.06 431.902c3.46-3.116 5.225-7.698 4.748-12.328l-8.68-84.277c-.686-6.673-5.842-12.01-12.487-12.93L653.823 296.56c-.82-.113-1.65-.156-2.48-.13-8.043.27-14.35 7.007-14.09 15.05l6.14 188.492c.218 6.705 4.987 12.39 11.552 13.77l82.91 17.442c4.554.958 9.294-.318 12.755-3.434l106.45-95.848z" opacity=".383"/>
    <path d="M856.28 424.567c3.236-3.216 4.743-7.784 4.054-12.292l-12.55-82.108c-.992-6.496-6.293-11.47-12.84-12.05L650.767 301.84c-.81-.07-1.623-.073-2.433-.006-7.857.65-13.707 7.546-13.064 15.403l15.07 184.28c.536 6.55 5.476 11.883 11.966 12.92l82.024 13.085c4.504.72 9.08-.758 12.318-3.974l99.63-98.98z" opacity=".375"/>
    <path d="M855.16 417.424c3.014-3.302 4.27-7.844 3.378-12.222l-16.236-79.797c-1.284-6.31-6.71-10.922-13.144-11.173l-181.13-7.074c-.794-.03-1.59.006-2.38.11-7.657 1.014-13.05 8.043-12.043 15.7l23.618 179.722c.84 6.384 5.93 11.366 12.33 12.067l80.946 8.866c4.44.487 8.85-1.178 11.862-4.48l92.8-101.72z" opacity=".367"/>
    <path d="M853.722 410.488c2.79-3.377 3.8-7.882 2.717-12.122l-19.737-77.356c-1.56-6.112-7.09-10.364-13.4-10.3l-177.7 1.785c-.78.008-1.557.083-2.324.223-7.446 1.36-12.384 8.497-11.03 15.94l31.77 174.848c1.13 6.206 6.35 10.836 12.645 11.215l79.69 4.79c4.37.26 8.602-1.58 11.39-4.957l85.977-104.065z" opacity=".359"/>
    <path d="M851.98 403.768c2.568-3.438 3.34-7.894 2.077-11.992l-23.05-74.797c-1.82-5.906-7.437-9.802-13.606-9.437l-173.918 10.294c-.762.045-1.52.155-2.263.33-7.22 1.688-11.71 8.91-10.027 16.128l39.526 169.68c1.4 6.02 6.73 10.298 12.91 10.366l78.263.858c4.288.047 8.34-1.958 10.908-5.396l79.18-106.034z" opacity=".352"/>
    <path d="M850.016 397.256c2.348-3.488 2.89-7.887 1.457-11.837L825.31 313.27c-2.063-5.692-7.747-9.233-13.766-8.578L641.71 323.167c-.744.08-1.48.225-2.2.43-6.983 2.002-11.03 9.286-9.038 16.27l46.85 164.285c1.662 5.823 7.083 9.755 13.133 9.523l76.688-2.937c4.198-.16 8.07-2.32 10.417-5.807l72.456-107.674z" opacity=".344"/>
    <path d="M847.723 390.998c2.13-3.526 2.447-7.856.855-11.652l-29.094-69.39c-2.294-5.47-8.026-8.662-13.885-7.732l-165.42 26.248c-.725.115-1.44.292-2.133.528-6.737 2.293-10.346 9.614-8.06 16.352l53.792 158.617c1.904 5.617 7.398 9.203 13.307 8.686l74.956-6.56c4.1-.36 7.784-2.656 9.913-6.182l65.767-108.916z" opacity=".336"/>
    <path d="M845.18 384.983c1.914-3.553 2.017-7.804.277-11.442l-31.836-66.548c-2.507-5.242-8.27-8.09-13.96-6.9L638.93 333.74c-.703.146-1.393.353-2.06.618-6.483 2.566-9.662 9.903-7.1 16.386L690.09 503.48c2.134 5.404 7.684 8.65 13.44 7.86l73.09-10.023c3.994-.548 7.488-2.973 9.402-6.525l59.157-109.81z" opacity=".328"/>
    <path d="M842.41 379.217c1.7-3.567 1.596-7.732-.282-11.208L807.74 304.37c-2.707-5.01-8.483-7.52-13.993-6.082l-155.792 40.664c-.68.178-1.346.413-1.987.704-6.22 2.822-8.977 10.153-6.16 16.374l66.442 146.664c2.35 5.187 7.937 8.096 13.533 7.047l71.096-13.324c3.882-.73 7.185-3.27 8.886-6.836l52.643-110.367z" opacity=".32"/>
    <path d="M839.38 373.688c1.494-3.572 1.192-7.642-.812-10.952l-36.725-60.655c-2.89-4.77-8.66-6.948-13.98-5.276l-150.577 47.32c-.657.205-1.296.468-1.91.783-5.948 3.06-8.294 10.365-5.238 16.316l72.096 140.408c2.547 4.962 8.152 7.54 13.576 6.244l68.968-16.47c3.763-.9 6.872-3.543 8.365-7.115l46.238-110.602z" opacity=".313"/>
    <path d="M836.157 368.422c1.29-3.567.798-7.534-1.322-10.676l-38.873-57.625c-3.055-4.527-8.806-6.38-13.93-4.49l-145.157 53.583c-.634.234-1.246.52-1.83.86-5.674 3.28-7.618 10.54-4.343 16.214l77.34 134.015c2.73 4.732 8.338 6.984 13.582 5.456l66.735-19.448c3.638-1.06 6.552-3.796 7.84-7.363l39.957-110.525z" opacity=".305"/>
    <path d="M832.755 363.422c1.09-3.552.42-7.41-1.806-10.382l-40.837-54.558c-3.206-4.283-8.922-5.82-13.845-3.723L636.71 354.212c-.61.26-1.194.57-1.75.93-5.393 3.48-6.946 10.678-3.47 16.073l82.176 127.51c2.9 4.498 8.493 6.432 13.55 4.684l64.41-22.254c3.51-1.213 6.23-4.03 7.32-7.582l33.81-110.152z" opacity=".297"/>
    <path d="M829.192 358.69c.896-3.528.054-7.27-2.266-10.072l-42.614-51.462c-3.343-4.037-9.01-5.266-13.725-2.978L636.78 359.115c-.583.283-1.14.615-1.667.993-5.11 3.666-6.283 10.782-2.62 15.894l86.605 120.914c3.052 4.262 8.62 5.885 13.483 3.932l62.007-24.892c3.375-1.355 5.9-4.242 6.797-7.77l27.808-109.496z" opacity=".289"/>
    <path d="M825.487 354.227c.707-3.495-.297-7.116-2.702-9.746l-44.212-48.348c-3.465-3.79-9.07-4.72-13.574-2.254l-127.924 70.03c-.557.306-1.086.658-1.583 1.053-4.823 3.834-5.63 10.853-1.802 15.68l90.64 114.25c3.193 4.022 8.718 5.343 13.384 3.198l59.53-27.36c3.237-1.488 5.57-4.435 6.277-7.93l21.967-108.57z" opacity=".281"/>
    <path d="M821.608 350.026c.523-3.454-.632-6.95-3.11-9.407l-45.607-45.223c-3.57-3.54-9.097-4.182-13.384-1.553l-121.875 74.75c-.53.325-1.03.695-1.497 1.106-4.534 3.982-4.986 10.89-1.01 15.427l94.227 107.53c3.315 3.782 8.782 4.808 13.243 2.485l56.966-29.664c3.094-1.61 5.234-4.607 5.758-8.06l16.29-107.392z" opacity=".273"/>
    <path d="M817.615 346.122c.347-3.403-.952-6.766-3.494-9.05l-46.83-42.08c-3.663-3.294-9.1-3.655-13.167-.877L638.39 373.157c-.503.343-.976.73-1.413 1.153-4.244 4.113-4.354 10.89-.246 15.138l97.433 100.74c3.425 3.542 8.822 4.284 13.074 1.797l54.35-31.78c2.95-1.726 4.9-4.76 5.246-8.162l10.782-105.92z" opacity=".266"/>
    <path d="M813.53 342.49c.177-3.346-1.256-6.574-3.853-8.686l-47.883-38.948c-3.743-3.045-9.08-3.137-12.925-.224l-109.53 82.954c-.475.36-.92.76-1.326 1.196-3.954 4.227-3.736 10.862.487 14.82l100.26 93.948c3.52 3.3 8.836 3.765 12.876 1.128l51.692-33.73c2.804-1.83 4.566-4.89 4.74-8.234l5.463-104.225z" opacity=".258"/>
    <path d="M809.37 339.124c.012-3.28-1.545-6.37-4.188-8.31l-48.77-35.834c-3.81-2.798-9.035-2.632-12.658.402l-103.28 86.494c-.45.375-.864.788-1.242 1.234-3.665 4.325-3.133 10.805 1.19 14.473l102.712 87.17c3.604 3.057 8.828 3.257 12.655.484l49.003-35.514c2.656-1.924 4.232-5.002 4.243-8.283l.335-102.316z" opacity=".25"/>
    <path d="M805.1 336.026c-.146-3.21-1.817-6.157-4.495-7.93l-49.47-32.744c-3.86-2.555-8.964-2.14-12.362 1.002L641.82 386.02c-.42.39-.806.813-1.154 1.267-3.377 4.408-2.545 10.722 1.86 14.103l104.75 80.42c3.67 2.82 8.79 2.764 12.4-.133l46.268-37.134c2.504-2.01 3.9-5.097 3.75-8.308l-4.593-100.21z" opacity=".242"/>
    <path d="M800.785 333.192c-.3-3.134-2.075-5.937-4.78-7.543l-50.017-29.69c-3.898-2.314-8.87-1.664-12.043 1.574l-90.62 92.48c-.39.4-.748.834-1.067 1.295-3.092 4.474-1.974 10.61 2.496 13.708l106.44 73.722c3.727 2.582 8.732 2.282 12.123-.726l43.518-38.593c2.353-2.086 3.57-5.173 3.27-8.307l-9.32-97.92z" opacity=".234"/>
    <path d="M796.44 330.642c-.444-3.05-2.316-5.707-5.04-7.147l-50.41-26.657c-3.925-2.075-8.758-1.2-11.707 2.12l-84.304 94.9c-.365.41-.694.85-.984 1.316-2.81 4.525-1.422 10.474 3.1 13.287l107.786 67.05c3.77 2.345 8.652 1.81 11.826-1.294l40.764-39.877c2.203-2.155 3.243-5.233 2.8-8.284l-13.833-95.414z" opacity=".227"/>
    <path d="M792.03 328.354c-.58-2.963-2.54-5.47-5.272-6.748l-50.634-23.676c-3.938-1.842-8.622-.754-11.346 2.634l-77.965 96.97c-.337.418-.637.865-.898 1.335-2.53 4.56-.887 10.31 3.67 12.846l108.746 60.465c3.8 2.114 8.55 1.357 11.504-1.832l37.99-41.004c2.05-2.212 2.92-5.273 2.34-8.235l-18.135-92.756z" opacity=".219"/>
    <path d="M787.615 326.317c-.71-2.87-2.745-5.23-5.48-6.347l-50.718-20.75c-3.94-1.612-8.47-.323-10.972 3.122l-71.674 98.705c-.31.425-.58.877-.813 1.35-2.256 4.582-.372 10.13 4.207 12.39l109.39 53.98c3.818 1.883 8.427.915 11.163-2.347l35.224-41.978c1.9-2.263 2.604-5.3 1.895-8.17l-22.22-89.955z" opacity=".211"/>
    <path d="M783.21 324.524c-.833-2.774-2.938-4.983-5.667-5.946l-50.67-17.882c-3.933-1.388-8.303.09-10.585 3.582L650.84 404.396c-.28.43-.526.886-.73 1.36-1.987 4.59.122 9.927 4.712 11.918l109.73 47.604c3.826 1.66 8.29.49 10.81-2.83l32.477-42.81c1.748-2.304 2.29-5.308 1.46-8.082l-26.09-87.032z" opacity=".203"/>
    <path d="M778.786 323.007c-.947-2.672-3.112-4.732-5.827-5.543l-50.467-15.07c-3.912-1.167-8.114.49-10.178 4.012L653.058 407.57c-.255.434-.473.89-.65 1.363-1.723 4.586.597 9.703 5.18 11.43l109.716 41.326c3.82 1.438 8.128.08 10.433-3.29l29.737-43.47c1.6-2.338 1.986-5.3 1.04-7.974l-29.728-83.95z" opacity=".195"/>
    <path d="M774.396 321.722c-1.054-2.57-3.27-4.48-5.965-5.14l-50.14-12.328c-3.884-.954-7.914.867-9.764 4.412l-53.16 101.907c-.23.438-.42.895-.57 1.366-1.466 4.567 1.05 9.46 5.615 10.93l109.423 35.184c3.806 1.224 7.954-.31 10.047-3.718l27.03-43.996c1.45-2.364 1.686-5.28.632-7.85l-33.146-80.768z" opacity=".188"/>
    <path d="M770.05 320.66c-1.155-2.462-3.415-4.224-6.083-4.743l-49.704-9.656c-3.845-.746-7.7 1.23-9.34 4.787l-47.17 102.363c-.204.44-.368.896-.493 1.364-1.214 4.54 1.48 9.205 6.02 10.422l108.864 29.188c3.783 1.014 7.767-.687 9.65-4.12l24.36-44.39c1.307-2.382 1.397-5.247.243-7.71L770.05 320.66z" opacity=".18"/>
    <path d="M765.725 319.856c-1.247-2.35-3.542-3.966-6.176-4.344l-49.128-7.06c-3.796-.546-7.47 1.572-8.904 5.13l-41.266 102.482c-.177.44-.316.894-.416 1.357-.97 4.498 1.89 8.93 6.386 9.902l107.988 23.332c3.748.81 7.563-1.045 9.24-4.493l21.717-44.628c1.164-2.393 1.115-5.198-.132-7.55l-39.31-74.126z" opacity=".172"/>
    <path d="M761.465 319.26c-1.332-2.24-3.655-3.707-6.25-3.95l-48.45-4.546c-3.738-.35-7.232 1.898-8.462 5.445L662.81 418.55c-.152.438-.266.89-.342 1.347-.73 4.445 2.278 8.642 6.722 9.376l106.874 17.64c3.705.613 7.348-1.385 8.823-4.838l19.125-44.748c1.024-2.396.84-5.137-.49-7.377l-42.057-70.69z" opacity=".164"/>
    <path d="M757.238 318.89c-1.41-2.126-3.753-3.45-6.3-3.565l-47.658-2.128c-3.673-.164-6.98 2.2-8.013 5.73l-29.81 101.918c-.128.437-.218.883-.27 1.334-.5 4.38 2.644 8.343 7.025 8.848l105.49 12.152c3.653.42 7.12-1.708 8.396-5.156l16.564-44.736c.886-2.392.575-5.065-.836-7.19l-44.588-67.207z" opacity=".156"/>
    <path d="M753.107 318.733c-1.482-2.012-3.835-3.195-6.333-3.183l-46.766.215c-3.6.017-6.722 2.49-7.562 5.99L668.143 422.98c-.103.43-.17.872-.2 1.316-.28 4.31 2.986 8.03 7.295 8.314l103.877 6.807c3.592.236 6.88-2.012 7.962-5.445l14.075-44.6c.75-2.38.32-4.98-1.162-6.99l-46.883-63.65z" opacity=".148"/>
    <path d="M749.03 318.786c-1.547-1.896-3.905-2.94-6.347-2.81l-45.774 2.454c-3.52.19-6.453 2.756-7.106 6.22l-18.908 100.27c-.08.43-.125.863-.132 1.298-.066 4.227 3.306 7.71 7.532 7.78l102.025 1.685c3.525.06 6.63-2.297 7.524-5.706l11.627-44.34c.62-2.366.074-4.886-1.472-6.782l-48.97-60.07z" opacity=".141"/>
    <path d="M745.048 319.014c-1.603-1.78-3.96-2.69-6.34-2.444l-44.71 4.6c-3.432.353-6.177 3.005-6.65 6.423L673.67 426.7c-.06.424-.08.85-.066 1.277.138 4.138 3.604 7.383 7.74 7.25l99.996-3.248c3.45-.113 6.373-2.566 7.083-5.942l9.25-43.983c.492-2.343-.165-4.782-1.768-6.563l-50.854-56.478z" opacity=".133"/>
    <path d="M741.218 319.41c-1.654-1.666-4.004-2.442-6.322-2.088l-43.577 6.654c-3.342.51-5.9 3.236-6.197 6.603l-8.624 97.748c-.038.416-.04.835-.005 1.25.335 4.042 3.883 7.05 7.924 6.72l97.8-7.983c3.37-.275 6.113-2.815 6.645-6.153l6.94-43.532c.368-2.316-.392-4.67-2.046-6.335l-52.542-52.886z" opacity=".125"/>
    <path d="M737.433 320.007c-1.698-1.55-4.033-2.194-6.284-1.737l-42.354 8.61c-3.242.658-5.612 3.446-5.74 6.753l-3.735 96.136c-.015.407.004.817.057 1.222.522 3.937 4.136 6.71 8.072 6.193l95.39-12.516c3.28-.43 5.84-3.047 6.2-6.336l4.698-42.963c.25-2.282-.607-4.548-2.305-6.097l-54-49.266z" opacity=".117"/>
    <path d="M733.78 320.767c-1.734-1.433-4.048-1.95-6.226-1.395l-41.062 10.48c-3.14.8-5.324 3.643-5.292 6.883l.94 94.327c.004.4.043.8.114 1.194.7 3.824 4.365 6.36 8.19 5.666l92.81-16.874c3.188-.58 5.566-3.26 5.76-6.495l2.546-42.3c.135-2.246-.81-4.42-2.545-5.853l-55.234-45.633z" opacity=".109"/>
    <path d="M730.218 321.698c-1.764-1.318-4.052-1.714-6.156-1.065l-39.704 12.236c-3.03.933-5.03 3.817-4.843 6.983l5.462 92.32c.023.393.08.782.17 1.163.865 3.706 4.572 6.01 8.278 5.147l90.07-20.983c3.09-.72 5.287-3.456 5.322-6.628l.456-41.544c.024-2.202-1.006-4.283-2.77-5.6l-56.285-42.03z" opacity=".102"/>
    <path d="M726.8 322.77c-1.788-1.204-4.043-1.48-6.07-.745l-38.29 13.907c-2.92 1.06-4.736 3.977-4.402 7.065l9.758 90.15c.04.382.115.76.22 1.128 1.025 3.582 4.76 5.656 8.34 4.633l87.188-24.914c2.986-.853 5.004-3.635 4.886-6.74l-1.538-40.708c-.08-2.153-1.187-4.138-2.975-5.342L726.8 322.77z" opacity=".094"/>
    <path d="M723.483 323.995c-1.806-1.09-4.024-1.253-5.97-.436l-36.825 15.46c-2.803 1.176-4.44 4.115-3.965 7.118l13.89 87.807c.06.37.15.736.27 1.092 1.174 3.453 4.925 5.302 8.378 4.13l84.176-28.59c2.88-.98 4.718-3.797 4.455-6.826l-3.464-39.787c-.183-2.1-1.36-3.99-3.165-5.08l-57.777-34.888z" opacity=".086"/>
    <path d="M720.274 325.37c-1.82-.98-3.997-1.033-5.86-.142l-35.316 16.895c-2.685 1.284-4.143 4.235-3.534 7.148l17.856 85.3c.076.36.182.712.317 1.054 1.315 3.32 5.072 4.948 8.392 3.637l81.053-32.012c2.768-1.093 4.43-3.935 4.026-6.883l-5.32-38.787c-.28-2.045-1.523-3.835-3.342-4.815l-58.274-31.394z" opacity=".078"/>
    <path d="M717.246 326.845c-1.828-.87-3.96-.82-5.74.142l-33.785 18.237c-2.563 1.384-3.847 4.34-3.11 7.16l21.623 82.685c.09.347.212.687.36 1.015 1.447 3.184 5.202 4.597 8.386 3.156l77.866-35.23c2.655-1.203 4.144-4.06 3.606-6.924l-7.09-37.733c-.373-1.988-1.674-3.678-3.5-4.55l-58.616-27.958z" opacity=".07"/>
    <path d="M714.258 328.476c-1.825-.763-3.906-.61-5.597.416l-32.176 19.484c-2.438 1.476-3.55 4.426-2.697 7.145l25.1 79.882c.104.336.24.663.4.976 1.564 3.04 5.297 4.24 8.34 2.678l74.483-38.25c2.535-1.302 3.853-4.167 3.19-6.94l-8.735-36.587c-.46-1.925-1.81-3.514-3.636-4.277l-58.672-24.527z" opacity=".063"/>
    <path d="M711.48 330.178c-1.82-.658-3.846-.407-5.45.676l-30.57 20.63c-2.314 1.562-3.26 4.5-2.295 7.118l28.413 77.02c.12.324.266.636.44.935 1.674 2.898 5.38 3.89 8.28 2.217l71.095-41.048c2.416-1.395 3.567-4.26 2.787-6.938l-10.312-35.41c-.54-1.86-1.938-3.348-3.76-4.006l-58.627-21.194z" opacity=".055"/>
    <path d="M708.826 331.995c-1.813-.557-3.782-.214-5.3.92L674.58 354.58c-2.187 1.636-2.97 4.553-1.9 7.065l31.55 74.043c.132.31.29.61.473.892 1.778 2.753 5.45 3.546 8.205 1.77l67.656-43.593c2.295-1.48 3.282-4.334 2.39-6.914l-11.81-34.174c-.62-1.79-2.057-3.18-3.87-3.736l-58.448-17.94z" opacity=".047"/>
    <path d="M706.356 333.875c-1.8-.457-3.71-.028-5.14 1.155l-27.322 22.61c-2.06 1.704-2.687 4.594-1.52 7l34.493 71.01c.144.298.314.583.507.85 1.87 2.608 5.504 3.207 8.112 1.34l64.196-45.95c2.174-1.555 3.002-4.394 2.005-6.875l-13.222-32.906c-.692-1.723-2.166-3.01-3.966-3.47l-58.144-14.765z" opacity=".039"/>
    <path d="M704.012 335.862c-1.782-.36-3.627.15-4.968 1.376l-25.657 23.452c-1.93 1.766-2.405 4.62-1.148 6.915l37.17 67.866c.156.284.335.554.537.808 1.953 2.457 5.53 2.868 7.99.918l60.63-48.08c2.05-1.625 2.723-4.44 1.63-6.816l-14.523-31.582c-.76-1.65-2.26-2.838-4.042-3.198l-57.62-11.658z" opacity=".031"/>
    <path d="M701.804 337.89c-1.76-.266-3.538.323-4.79 1.585l-23.998 24.212c-1.803 1.82-2.13 4.633-.79 6.817l39.66 64.694c.166.27.354.525.563.763 2.027 2.31 5.544 2.54 7.855.515l57.06-50.023c1.927-1.688 2.45-4.473 1.267-6.745l-15.74-30.24c-.82-1.576-2.344-2.666-4.103-2.933l-56.986-8.643z" opacity=".023"/>
    <path d="M699.748 340.003c-1.73-.176-3.44.485-4.603 1.78l-22.328 24.865c-1.675 1.865-1.86 4.632-.446 6.702l41.932 61.443c.175.256.37.497.586.72 2.092 2.16 5.54 2.215 7.7.124l53.452-51.734c1.8-1.743 2.18-4.49.914-6.655l-16.86-28.854c-.876-1.502-2.42-2.494-4.15-2.67l-56.196-5.72z" opacity=".016"/>
    <path d="M697.823 342.188c-1.7-.09-3.34.64-4.415 1.96l-20.67 25.413c-1.547 1.904-1.594 4.616-.113 6.57l44.022 58.133c.183.24.386.467.607.674 2.15 2.01 5.522 1.9 7.533-.248l49.857-53.212c1.677-1.79 1.914-4.492.574-6.546l-17.9-27.435c-.93-1.426-2.485-2.32-4.186-2.41l-55.31-2.9z" opacity=".008"/>
  </g>
</svg>
